<?xml version="1.0" encoding="UTF-8" standalone="no"?>
<!-- Uploaded to: SVG Repo, www.svgrepo.com, Generator: SVG Repo Mixer Tools -->

<svg
   height="800px"
   width="800px"
   version="1.1"
   id="Capa_1"
   viewBox="0 0 56 56"
   xml:space="preserve"
   xmlns="http://www.w3.org/2000/svg"
   xmlns:svg="http://www.w3.org/2000/svg"
   xmlns:rdf="http://www.w3.org/1999/02/22-rdf-syntax-ns#"
   xmlns:cc="http://creativecommons.org/ns#"><defs
   id="defs13">
	
	
</defs>
<g
   id="g11">
		<path
   style="fill:#545e73"
   d="M 49.455,8 V 8 C 48.724,3.538 38.281,0 25.5,0 12.719,0 2.276,3.538 1.545,8 V 8 H 1.5 V 8.5 20 20.5 21 32 32.5 33 45 h 0.045 c 0.731,4.461 11.175,8 23.955,8 12.78,0 23.224,-3.539 23.955,-8 H 49.5 V 33 32.5 32 21 20.5 20 8.5 8 Z"
   id="path1" />
		<g
   id="g4">
			<path
   style="fill:#38454f"
   d="M 25.5,41 C 12.245,41 1.5,37.194 1.5,32.5 V 45 h 0.045 c 0.731,4.461 11.175,8 23.955,8 12.78,0 23.224,-3.539 23.955,-8 H 49.5 V 32.5 c 0,4.694 -10.745,8.5 -24,8.5 z"
   id="path2" />
			<path
   style="fill:#38454f"
   d="m 1.5,32 v 0.5 c 0,-0.168 0.018,-0.334 0.045,-0.5 z"
   id="path3" />
			<path
   style="fill:#38454f"
   d="m 49.455,32 c 0.027,0.166 0.045,0.332 0.045,0.5 V 32 Z"
   id="path4" />
		</g>
		<g
   id="g7">
			<path
   style="fill:#556080"
   d="M 25.5,29 C 12.245,29 1.5,25.194 1.5,20.5 V 33 h 0.045 c 0.731,4.461 11.175,8 23.955,8 12.78,0 23.224,-3.539 23.955,-8 H 49.5 V 20.5 c 0,4.694 -10.745,8.5 -24,8.5 z"
   id="path5" />
			<path
   style="fill:#556080"
   d="m 1.5,20 v 0.5 c 0,-0.168 0.018,-0.334 0.045,-0.5 z"
   id="path6" />
			<path
   style="fill:#556080"
   d="m 49.455,20 c 0.027,0.166 0.045,0.332 0.045,0.5 V 20 Z"
   id="path7" />
		</g>
		<ellipse
   style="fill:#91bae1"
   cx="25.5"
   cy="8.5"
   rx="24"
   ry="8.5"
   id="ellipse7" />
		<g
   id="g10">
			<path
   style="fill:#8697cb"
   d="M 25.5,17 C 12.245,17 1.5,13.194 1.5,8.5 V 21 h 0.045 c 0.731,4.461 11.175,8 23.955,8 12.78,0 23.224,-3.539 23.955,-8 H 49.5 V 8.5 c 0,4.694 -10.745,8.5 -24,8.5 z"
   id="path8" />
			<path
   style="fill:#8697cb"
   d="M 1.5,8 V 8.5 C 1.5,8.332 1.518,8.166 1.545,8 Z"
   id="path9" />
			<path
   style="fill:#8697cb"
   d="M 49.455,8 C 49.482,8.166 49.5,8.332 49.5,8.5 V 8 Z"
   id="path10" />
		</g>
	</g>
<metadata
   id="metadata13"><rdf:RDF><cc:License
       rdf:about="http://creativecommons.org/publicdomain/zero/1.0/"><cc:permits
         rdf:resource="http://creativecommons.org/ns#Reproduction" /><cc:permits
         rdf:resource="http://creativecommons.org/ns#Distribution" /><cc:permits
         rdf:resource="http://creativecommons.org/ns#DerivativeWorks" /></cc:License><cc:Work
       rdf:about=""><cc:license
         rdf:resource="http://creativecommons.org/publicdomain/zero/1.0/" /></cc:Work></rdf:RDF></metadata></svg>
